<svg width="17" height="21" viewBox="0 0 17 21" fill="none" xmlns="http://www.w3.org/2000/svg">
<path fill-rule="evenodd" clip-rule="evenodd" d="M16.7125 1.20054C16.8557 1.41671 16.9417 1.71904 16.9515 2.04108C16.9613 2.36312 16.8942 2.6785 16.7649 2.91789L7.04031 20.8711L1.16014 11.4949C1.02811 11.2695 0.953645 10.9673 0.952468 10.6519C0.95129 10.3366 1.02349 10.0328 1.15383 9.80462C1.28417 9.57647 1.46247 9.44182 1.6511 9.42906C1.83974 9.41631 2.02397 9.52644 2.16493 9.73624L6.96313 17.3865L15.6851 1.28689C15.7493 1.1684 15.8268 1.07221 15.9133 1.0038C15.9997 0.935393 16.0934 0.896115 16.1889 0.888209C16.2845 0.880302 16.38 0.903923 16.4701 0.957722C16.5602 1.01152 16.643 1.09444 16.7139 1.20175" fill="white"/>
</svg>
