<svg width="18" height="18" viewBox="0 0 18 18" fill="none" xmlns="http://www.w3.org/2000/svg">
<g clip-path="url(#clip0_54_352)">
<path d="M8.20218 1.14707C8.50608 0.42461 9.54117 0.42461 9.84503 1.14707L11.6387 5.41115C11.7669 5.71572 12.0566 5.92382 12.3891 5.95018L17.0448 6.31924C17.8336 6.38177 18.1535 7.35511 17.5524 7.86415L14.0053 10.8685C13.752 11.0831 13.6413 11.4199 13.7187 11.7407L14.8024 16.2329C14.986 16.994 14.1487 17.5956 13.4733 17.1877L9.48733 14.7805C9.20265 14.6084 8.84459 14.6084 8.55989 14.7805L4.57393 17.1877C3.89859 17.5956 3.06121 16.994 3.24481 16.2329L4.32853 11.7407C4.40594 11.4199 4.29529 11.0831 4.04194 10.8685L0.494759 7.86415C-0.106234 7.35511 0.213621 6.38177 1.00244 6.31924L5.65817 5.95018C5.99071 5.92382 6.2804 5.71572 6.40851 5.41115L8.20218 1.14707Z" fill="#FC7D27"/>
</g>
<defs>
<clipPath id="clip0_54_352">
<rect width="17.682" height="16.8125" fill="white" transform="translate(0.182617 0.605225)"/>
</clipPath>
</defs>
</svg>
